<svg xmlns="http://www.w3.org/2000/svg" xmlns:cc="http://creativecommons.org/ns#" xmlns:dc="http://purl.org/dc/elements/1.1/" xmlns:rdf="http://www.w3.org/1999/02/22-rdf-syntax-ns#" version="1.1" viewBox="0 0 100 125" xml:space="preserve" x="0px" y="0px"><path d="m23.596 1.6289c-11.633 0-21.096 9.463-21.096 21.096v51.369c0 11.633 9.463 21.096 21.096 21.096h32.615c0.95813 0 1.7324-0.7743 1.7324-1.7324s-0.77429-1.7324-1.7324-1.7324h-32.615c-9.7216 0-17.631-7.9075-17.631-17.631v-51.369c0-9.7233 7.9093-17.631 17.631-17.631h51.365c9.7216 0 17.635 7.9075 17.635 17.631v30.883c0 0.95813 0.77429 1.7324 1.7324 1.7324 0.95813 0 1.7324-0.7743 1.7324-1.7324v-30.883c0-11.633-9.4669-21.096-21.1-21.096h-51.365zm13.299 12.133c-0.44203 0.03357-0.87064 0.23772-1.1816 0.60156l-10.824 12.625-6.623-4.9629c-0.76234-0.57176-1.8523-0.42379-2.4258 0.34375-0.57522 0.76408-0.41815 1.8503 0.34766 2.4238l7.9199 5.9414c0.31014 0.2339 0.67695 0.3457 1.0391 0.3457 0.49032 0 0.97509-0.20524 1.3164-0.60547l11.881-13.861c0.62374-0.72423 0.53824-1.8157-0.18945-2.4395-0.36211-0.311-0.81774-0.44568-1.2598-0.41211zm12.385 8.6582c-0.95813 0-1.7324 0.7743-1.7324 1.7324s0.77429 1.7344 1.7324 1.7344h31.188c0.95813 0 1.7324-0.77625 1.7324-1.7344s-0.7743-1.7324-1.7324-1.7324h-31.188zm-12.385 15.598c-0.44203 0.03357-0.87064 0.23772-1.1816 0.60156l-10.824 12.627-6.623-4.9648c-0.76234-0.57176-1.8523-0.42184-2.4258 0.3457-0.57522 0.76408-0.41815 1.8484 0.34766 2.4219l7.9199 5.9434c0.31014 0.2339 0.67695 0.34375 1.0391 0.34375 0.49032 0 0.97509-0.20524 1.3164-0.60547l11.881-13.861c0.62374-0.72423 0.53824-1.8157-0.18945-2.4395-0.36211-0.311-0.81774-0.44568-1.2598-0.41211zm12.385 8.6602c-0.95813 0-1.7324 0.7743-1.7324 1.7324s0.77429 1.7324 1.7324 1.7324h31.188c0.95813 0 1.7324-0.7743 1.7324-1.7324s-0.7743-1.7324-1.7324-1.7324h-31.188zm15.848 11.938c-6.6168 0-11.904 5.1339-12.596 12.217-0.07277 0.46607-0.25044 2.1174 0.39062 4.6973 0.94427 3.8048 3.1186 7.2586 6.291 9.9961l14.441 12.357c0.38464 0.32398 0.85078 0.48828 1.3203 0.48828 0.473 0 0.94762-0.16668 1.334-0.49414l14.436-12.355c3.1689-2.7306 5.3411-6.1839 6.2871-9.9922 0.64106-2.5781 0.46144-4.2273 0.38867-4.6934-0.68957-7.0846-5.9735-12.221-12.594-12.221-4.1513 0-7.639 2.5101-9.8516 5.5664-2.2108-3.0563-5.6964-5.5664-9.8477-5.5664zm-28.232 5.3945c-0.44224 0.03399-0.87064 0.23576-1.1816 0.59961l-10.824 12.625-6.623-4.9648c-0.76234-0.57349-1.8523-0.42184-2.4258 0.3457-0.57522 0.76408-0.41815 1.8484 0.34766 2.4219l7.9199 5.9434c0.31014 0.2339 0.67695 0.3457 1.0391 0.3457 0.49032 0 0.97508-0.20524 1.3164-0.60547l11.881-13.857c0.62374-0.72596 0.53824-1.8214-0.18945-2.4434-0.36298-0.311-0.81752-0.44416-1.2598-0.41016z" stroke-width="1.7326"/><text x="0" y="115" fill="#000000" font-size="5px" font-weight="bold" font-family="'Helvetica Neue', Helvetica, Arial-Unicode, Arial, Sans-serif">Created by alison</text><text x="0" y="120" fill="#000000" font-size="5px" font-weight="bold" font-family="'Helvetica Neue', Helvetica, Arial-Unicode, Arial, Sans-serif">from the Noun Project</text></svg>